<?xml version="1.0" encoding="UTF-8"?>
<svg xmlns="http://www.w3.org/2000/svg" version="1.2" baseProfile="tiny-ps" viewBox="0 0 1080 1080"><title>Untitled Logo</title>
 <g>
  <title>Layer 1</title>
  <defs id="SvgjsDefs15261">
   <linearGradient id="SvgjsLinearGradient15268">
    <stop offset="0" stop-color="#ef4136" id="SvgjsStop15269"/>
    <stop offset="1" stop-color="#fbb040" id="SvgjsStop15270"/>
   </linearGradient>
  </defs>
  <g transform="matrix(34.3425 0 0 37.1419 -2.39672 -110.174)" fill="url(#SvgjsLinearGradient15268)" featureKey="symbolFeature-0" id="SvgjsG15262">
   <path id="svg_2" d="m29.59444,15.33094l-1.8,7.3c-0.5,2.3 -2.2,4.1 -4.4,4.9l-4.3,1.6c-0.4,0.1 -0.8,0 -1.1,-0.3l-3.1,-3.4c-1.6,-1.7 -2.2,-4.1 -1.7,-6.4l1.7,-7.3c0.1,-0.4 0.5,-0.8 1,-0.8c4.6,0 9,1.1 13.1,3.1c0.5,0.4 0.7,0.9 0.6,1.3zm-12.5,4.9c-0.5,1.9 0.7,3.8 2.6,4.2c1.9,0.5 3.8,-0.7 4.2,-2.6m1.2,-4.8c-0.8,-0.2 -1.6,0.3 -1.8,1.1c-0.2,0.8 0.3,1.6 1.1,1.8c0.8,0.2 1.6,-0.3 1.8,-1.1c0.2,-0.8 -0.3,-1.6 -1.1,-1.8zm-6.8,-1.6c-0.8,-0.2 -1.6,0.3 -1.8,1.1c-0.2,0.8 0.3,1.6 1.1,1.8c0.8,0.2 1.6,-0.3 1.8,-1.1c0.2,-0.8 -0.3,-1.6 -1.1,-1.8zm-6.5,8.9l-2.1,-0.5c-2.3,-0.6 -4.1,-2.3 -4.9,-4.5l-2.8,-8c-0.2,-0.4 0,-0.9 0.4,-1.2c3.9,-2.5 8.1,-4 12.7,-4.4c0.5,0 0.9,0.2 1,0.7l1,2.8c-0.4,0 -0.8,0 -1.2,0c-1.4,0 -2.6,0.9 -2.9,2.3l-1.1,4.7c-0.1,0 -0.2,0 -0.3,0.1c-1.8,0.6 -2.8,2.6 -2.1,4.5l1.6,-0.6c-0.1,1.3 0.1,2.7 0.7,4.1zm-2.8,-9.9c-0.3,-0.8 -1.1,-1.2 -1.9,-0.9c-0.8,0.2 -1.3,1.1 -1,1.9c0.3,0.8 1.1,1.2 1.9,0.9s1.2,-1.1 1,-1.9z" xmlns="http://www.w3.org/2000/svg"/>
  </g>
 </g>
</svg>